<svg width="16" height="16" viewBox="0 0 16 16" fill="none" xmlns="http://www.w3.org/2000/svg">
<path d="M14.1769 13.8232L10.8832 10.5294C11.8063 9.51394 12.2957 8.17767 12.2467 6.80616C12.1977 5.43466 11.6143 4.13671 10.621 3.18966C9.62777 2.24261 8.30352 1.72159 6.93124 1.73792C5.55896 1.75425 4.24749 2.30665 3.27707 3.27707C2.30665 4.24749 1.75425 5.55896 1.73792 6.93124C1.72159 8.30352 2.24261 9.62777 3.18966 10.621C4.13671 11.6143 5.43466 12.1977 6.80616 12.2467C8.17767 12.2957 9.51394 11.8063 10.5294 10.8832L13.8232 14.1769C13.8701 14.2239 13.9337 14.2502 14.0001 14.2502C14.0664 14.2502 14.13 14.2239 14.1769 14.1769C14.2239 14.13 14.2502 14.0664 14.2502 14.0001C14.2502 13.9337 14.2239 13.8701 14.1769 13.8232ZM2.25007 7.00007C2.25007 6.06061 2.52865 5.14224 3.05059 4.36111C3.57252 3.57998 4.31437 2.97116 5.18232 2.61164C6.05027 2.25212 7.00534 2.15806 7.92675 2.34134C8.84816 2.52462 9.69453 2.97701 10.3588 3.64131C11.0231 4.30561 11.4755 5.15198 11.6588 6.07339C11.8421 6.9948 11.748 7.94987 11.3885 8.81781C11.029 9.68576 10.4202 10.4276 9.63903 10.9495C8.85789 11.4715 7.93953 11.7501 7.00007 11.7501C5.7407 11.7487 4.53328 11.2479 3.64277 10.3574C2.75226 9.46685 2.25139 8.25944 2.25007 7.00007Z" fill="#4F0B82"/>
</svg>
