<svg id="Camada_1" data-name="Camada 1" xmlns="http://www.w3.org/2000/svg" xmlns:xlink="http://www.w3.org/1999/xlink" viewBox="0 0 1260.53 1301.24"><defs><style>.cls-1{fill:url(#Gradiente_sem_nome_27);}.cls-2{fill:url(#Gradiente_sem_nome_16);}.cls-3{fill:none;stroke:#fffb9a;stroke-width:11px;}.cls-3,.cls-4{stroke-miterlimit:10;}.cls-4{stroke:#99582c;stroke-width:5px;fill:url(#Gradiente_sem_nome_41);}.cls-5{fill:#99582c;}</style><linearGradient id="Gradiente_sem_nome_27" y1="650.62" x2="1260.53" y2="650.62" gradientUnits="userSpaceOnUse"><stop offset="0" stop-color="#fede73"/><stop offset="0.02" stop-color="#fcda74"/><stop offset="1" stop-color="#a1239e"/></linearGradient><linearGradient id="Gradiente_sem_nome_16" x1="330.15" y1="650.62" x2="956.24" y2="650.62" gradientUnits="userSpaceOnUse"><stop offset="0" stop-color="#791a78"/><stop offset="1" stop-color="#3a0a37"/></linearGradient><linearGradient id="Gradiente_sem_nome_41" x1="462.94" y1="730.3" x2="1053.47" y2="730.3" gradientUnits="userSpaceOnUse"><stop offset="0" stop-color="#ffffd1"/><stop offset="1" stop-color="#fefc83"/></linearGradient></defs><title>logo_portal_bruxa</title><polygon id="Sol" class="cls-1" points="768.62 368.84 1072.31 217.66 920.47 521.61 1260.53 664.87 911.84 789.93 1062.57 1106.53 774.62 928.44 651.64 1301.24 521.16 924.48 239.96 1123.94 386.18 785.18 0 668.83 382.43 521.61 215.21 217.66 522.66 368.84 636.81 0 768.62 368.84"/><circle class="cls-2" cx="643.2" cy="650.62" r="313.04"/><polygon class="cls-3" points="574.07 841.25 697.12 421.3 836.78 845.93 498.78 582.05 925.53 582.05 574.07 841.25"/><g id="Lua"><path class="cls-4" d="M1053.47,600.19s-77.53-220.48-355-174.45c0,0-296.81,76.32-224.12,393.72,0,0,60.57,214.43,299.23,221.7,0,0,186.56,4.84,270.15-162.34,0,0-92.59,105.75-207.27,96,0,0-109.3-4.84-201.37-92.6,0,0,14-11.31,11.85-24.23A41.06,41.06,0,0,0,625.45,836s14.54-10.77,13.46-25.3-19.38-5.39-45.77-32.85c0,0,48.46,37.15,100.15-53.3,0,0-86.15,3.23-81.3-42.54,0,0,26.92-29.07,9.15-54.91,0,0,50.07-118.46,179.83-138.38C801,488.68,950.07,458.64,1053.47,600.19Z" transform="translate(-127.94 -79.68)"/><path class="cls-5" d="M596.91,783.2a21.16,21.16,0,0,1,6.67,2.38,18.15,18.15,0,0,1,3,2.07,12.69,12.69,0,0,1,1.34,1.31,5.64,5.64,0,0,1,1.15,1.8,2.09,2.09,0,0,1,.12.88,1.59,1.59,0,0,1-.25.72,1.5,1.5,0,0,1-.68.56,2,2,0,0,1-1.06.13,3.34,3.34,0,0,1-.65-.14,8.83,8.83,0,0,1-1.85-.87,30,30,0,0,1-3-2.1,60.35,60.35,0,0,1-5.35-4.72c-.42-.41-.85-.81-1.31-1.33s-.83-1-1.2-1.45c-.75-1-1.44-2-2.1-3a70,70,0,0,1-3.58-6.22,76.53,76.53,0,0,1-5.38-13.32,45.76,45.76,0,0,1-1.52-7.2,23.79,23.79,0,0,1,.18-7.74,13.08,13.08,0,0,1,1.47-4,10.4,10.4,0,0,1,3-3.36,11.55,11.55,0,0,1,3.95-1.82,13.14,13.14,0,0,1,4.16-.45,12.89,12.89,0,0,1,7.61,3.11,19.52,19.52,0,0,1,4.63,6.06,26.86,26.86,0,0,1,2.37,6.9,22.78,22.78,0,0,1,.4,7.12,35,35,0,0,0-5.47-12.39,18.7,18.7,0,0,0-4.41-4.46,8.88,8.88,0,0,0-8-1.23,7.16,7.16,0,0,0-2.34,1.11,7,7,0,0,0-2.48,4.4,20.3,20.3,0,0,0-.12,6.15,45,45,0,0,0,1.29,6.46,81.31,81.31,0,0,0,4.69,12.68c.94,2.06,2,4.08,3.08,6,.55,1,1.12,1.94,1.73,2.85.3.46.62.89.93,1.3s.68.8,1.06,1.24c1.53,1.7,3.07,3.39,4.69,5a26.07,26.07,0,0,0,2.5,2.16,8.58,8.58,0,0,0,1.23.77l.19.08s0,0-.2.08a.93.93,0,0,0-.34.3.65.65,0,0,0-.11.32c0,.11,0,.09,0,0a3.74,3.74,0,0,0-.59-1.2,10.8,10.8,0,0,0-1-1.28,21.39,21.39,0,0,0-2.45-2.29A24.91,24.91,0,0,0,596.91,783.2Z" transform="translate(-127.94 -79.68)"/><path class="cls-5" d="M512.5,666.19A87.92,87.92,0,0,1,527.57,651a77.09,77.09,0,0,1,18.57-11.21,44.34,44.34,0,0,1,10.75-3,25.55,25.55,0,0,1,11.4.86,19.54,19.54,0,0,1,5.16,2.65,15,15,0,0,1,2.2,1.84l1,1c.31.35.59.73.88,1.09a26.32,26.32,0,0,1,4.6,9.83,35.09,35.09,0,0,0-6.4-8.16,18.57,18.57,0,0,0-8.51-4.47,24.54,24.54,0,0,0-9.62.05,48.37,48.37,0,0,0-9.58,2.9,115.4,115.4,0,0,0-18.18,9.78C524,657.89,518.26,662,512.5,666.19Z" transform="translate(-127.94 -79.68)"/><path class="cls-5" d="M509.06,690.71a149.54,149.54,0,0,0,15.39,6.43,110.44,110.44,0,0,0,15.76,4.22,112.35,112.35,0,0,0,16.21,1.86A163.63,163.63,0,0,0,573.1,703a51.84,51.84,0,0,1-16.58,4.16,63.11,63.11,0,0,1-33.6-6.4A50.76,50.76,0,0,1,509.06,690.71Z" transform="translate(-127.94 -79.68)"/><path class="cls-5" d="M515.23,756a22.18,22.18,0,0,0-7.92,0,27.59,27.59,0,0,0-7.45,2.44,26.25,26.25,0,0,0-6.39,4.38,19.86,19.86,0,0,0-2.51,2.85,16.47,16.47,0,0,0-1.79,3.26,12.75,12.75,0,0,0-.8,3.51,10.69,10.69,0,0,0,.35,3.52,14.71,14.71,0,0,0,3.66,6.2,51.26,51.26,0,0,0,12.34,9.22,72.79,72.79,0,0,0,29.55,8.89,54.24,54.24,0,0,0,7.65,0,40.76,40.76,0,0,0,7.41-1.31,29.11,29.11,0,0,0,6.83-2.83,27.16,27.16,0,0,0,3-2,11.35,11.35,0,0,0,1.29-1.1,10.92,10.92,0,0,0,1-1.23,7.84,7.84,0,0,0,1.31-2.72,5.53,5.53,0,0,0,0-2.74,10.32,10.32,0,0,0-3.82-5,27,27,0,0,0-3-2.07c-1.11-.65-2.23-1.27-3.38-1.86a72,72,0,0,0-7.07-3.14,67.28,67.28,0,0,0-15-3.82,71.64,71.64,0,0,0-7.74-.44c-2.62,0-5.24,0-7.83.17a37.75,37.75,0,0,0-7.51,1.16,8.33,8.33,0,0,0-2.93,1.38,1.38,1.38,0,0,0-.5,1.77,4.31,4.31,0,0,0,1.84,2.25,13.86,13.86,0,0,0,3.27,1.52,49.49,49.49,0,0,0,7.6,1.71l4,.65c1.3.24,2.61.45,3.92.63,2.62.36,5.26.6,7.91.78a105.24,105.24,0,0,0,16-.31,90.11,90.11,0,0,1-16,1.69c-2.69,0-5.39,0-8.09-.23-1.34-.1-2.69-.23-4-.38l-4-.4a49.82,49.82,0,0,1-8.12-1.39,17.33,17.33,0,0,1-4.06-1.67,8.68,8.68,0,0,1-1.91-1.52,7.16,7.16,0,0,1-1.36-2.19,4.84,4.84,0,0,1-.36-1.37,4.64,4.64,0,0,1,.06-1.57,5,5,0,0,1,1.55-2.53,11.34,11.34,0,0,1,4.16-2.26,41.28,41.28,0,0,1,8.25-1.6c2.74-.29,5.46-.43,8.18-.48,1.37,0,2.73,0,4.09,0l2.06.08c.67,0,1.47.1,2.13.19a72,72,0,0,1,16.1,3.72,67.27,67.27,0,0,1,7.62,3.28c1.24.62,2.45,1.28,3.65,2a33,33,0,0,1,3.61,2.42,19,19,0,0,1,3.27,3.2,12.61,12.61,0,0,1,2.3,4.41,10.69,10.69,0,0,1,.08,5.18,12.73,12.73,0,0,1-2.11,4.49,14.27,14.27,0,0,1-1.56,1.82,14.86,14.86,0,0,1-1.75,1.5,32.18,32.18,0,0,1-11.6,5.66A47.65,47.65,0,0,1,533.91,805a62.36,62.36,0,0,1-8.2-1.23,72.09,72.09,0,0,1-8-2.17,77.72,77.72,0,0,1-7.68-3,80.19,80.19,0,0,1-7.28-3.84,60.82,60.82,0,0,1-6.8-4.69,42.54,42.54,0,0,1-6.05-5.74,17.71,17.71,0,0,1-4-7.7,13.75,13.75,0,0,1-.22-4.43,14.43,14.43,0,0,1,1.21-4.22,18.56,18.56,0,0,1,2.29-3.63,22,22,0,0,1,3-3,26.52,26.52,0,0,1,7.09-4.19,28.68,28.68,0,0,1,7.92-1.93A22.53,22.53,0,0,1,515.23,756Z" transform="translate(-127.94 -79.68)"/><path class="cls-5" d="M563.93,835.68a71.89,71.89,0,0,0,10.94,5.13,61.89,61.89,0,0,0,22.85,3.84,70.37,70.37,0,0,0,11.9-1.29l-.25.3c0,.07.08,0,0,0a.2.2,0,0,0-.12-.12c-.13,0-.29.38,0,.55a.46.46,0,0,1-.39-.32.54.54,0,0,1,.16-.6.65.65,0,0,1,.73,0,.72.72,0,0,1,.4.74l0,.14-.23.16a30.17,30.17,0,0,1-11.82,4.65,37.36,37.36,0,0,1-24.92-4.51A28.44,28.44,0,0,1,563.93,835.68Z" transform="translate(-127.94 -79.68)"/></g></svg>