<svg id="Camada_1" data-name="Camada 1" xmlns="http://www.w3.org/2000/svg" viewBox="0 0 1390.09 1382.2"><defs><style>.cls-1{fill:#ff0;}.cls-1,.cls-2,.cls-4{stroke:#5b079b;stroke-width:10px;}.cls-1,.cls-2,.cls-3,.cls-4{stroke-miterlimit:10;}.cls-2,.cls-5{fill:#5b079b;}.cls-3{fill:none;stroke:#ff0;stroke-width:11px;}.cls-4{fill:#ffffd6;}</style></defs><title>Logo_Portal-Bruxa</title><polygon id="Sol" class="cls-1" points="845.16 398.47 1172.8 241.41 1008.98 557.16 1375.86 706 999.68 835.92 1162.29 1164.83 851.63 979.81 718.96 1367.11 578.2 975.7 274.82 1182.92 432.58 830.98 15.95 710.11 428.53 557.16 248.13 241.41 579.81 398.47 702.96 15.29 845.16 398.47"/><circle class="cls-2" cx="716.04" cy="695.78" r="313.57"/><polygon class="cls-3" points="648.58 886.57 774.76 451.15 917.97 891.42 571.37 617.82 1008.98 617.82 648.58 886.57"/><g id="Lua"><path class="cls-4" d="M1045.89,646.33S968.22,425.47,690.34,471.58c0,0-297.31,76.45-224.5,394.39,0,0,60.68,214.78,299.73,222.06,0,0,186.88,4.86,270.61-162.6,0,0-92.74,105.92-207.62,96.21,0,0-109.48-4.85-201.71-92.76,0,0,14-11.33,11.87-24.27a41.09,41.09,0,0,0-21.57-22.12s14.56-10.78,13.48-25.34-19.42-5.4-45.84-32.9c0,0,48.54,37.21,100.31-53.4,0,0-86.29,3.24-81.44-42.6,0,0,27-29.13,9.17-55,0,0,50.16-118.66,180.14-138.61C793,534.63,942.31,504.54,1045.89,646.33Z" transform="translate(-47.04 -80.87)"/><path class="cls-5" d="M588.56,829.64a20.16,20.16,0,0,1,7,1.86,18,18,0,0,1,3.26,2,12.46,12.46,0,0,1,1.53,1.32,9.13,9.13,0,0,1,.73.86,4.78,4.78,0,0,1,.7,1.26,2.93,2.93,0,0,1,.18,1.33,2.68,2.68,0,0,1-1,1.86,2.81,2.81,0,0,1-.64.38,3.23,3.23,0,0,1-1.69.23,3.85,3.85,0,0,1-.49-.08l-.39-.09a11.07,11.07,0,0,1-2.17-.91,30,30,0,0,1-3.3-2.06,66.73,66.73,0,0,1-5.7-4.62l-.67-.6c-.21-.19-.54-.52-.77-.76-.49-.52-.92-1-1.34-1.55-.82-1-1.56-2-2.26-3.07a70.86,70.86,0,0,1-3.83-6.32A73.45,73.45,0,0,1,572,807a44.27,44.27,0,0,1-1.64-7.58,25.56,25.56,0,0,1,.21-8.55,15.81,15.81,0,0,1,1.75-4.7A12.79,12.79,0,0,1,576,782a13.79,13.79,0,0,1,4.77-2.17,14.88,14.88,0,0,1,4.88-.45,14.62,14.62,0,0,1,8.8,3.82,18,18,0,0,1,2.82,3.29,20.46,20.46,0,0,1,1.94,3.58,25,25,0,0,1,1.91,7.45,20,20,0,0,1-.51,7.41,43.24,43.24,0,0,0-3.08-6.29,35.72,35.72,0,0,0-3.76-5.29,17.48,17.48,0,0,0-4.3-3.68,9,9,0,0,0-2.12-.83,7.33,7.33,0,0,0-2-.15,8.24,8.24,0,0,0-2,.46,4.68,4.68,0,0,0-1.54.76A3.83,3.83,0,0,0,581,791a6.08,6.08,0,0,0-.62,1.84,18.55,18.55,0,0,0-.08,5.36,46.49,46.49,0,0,0,1.17,6.11,86,86,0,0,0,4.36,12.37c.86,2,1.84,4,2.84,6,.5,1,1,1.9,1.57,2.78.27.43.55.84.8,1.21.15.21.21.31.4.54l.53.67c1.43,1.75,2.87,3.48,4.36,5.08a30.88,30.88,0,0,0,2.24,2.21c.34.31.75.6.91.73s0,0,0,0,0,0-.06,0a2.15,2.15,0,0,0-.83.18,2,2,0,0,0-.46.28,2.47,2.47,0,0,0-.4.45,1.77,1.77,0,0,0-.29.84c0,.37.07.47.07.47s0-.15,0-.31a3.7,3.7,0,0,0-.27-.58,9,9,0,0,0-.82-1.26,19.54,19.54,0,0,0-2.18-2.41A26.28,26.28,0,0,0,588.56,829.64Z" transform="translate(-47.04 -80.87)"/><path class="cls-5" d="M504,712.44a54,54,0,0,1,6.28-9,75.78,75.78,0,0,1,7.68-7.84,67.19,67.19,0,0,1,18.8-12,52.15,52.15,0,0,1,5.49-1.88c.93-.27,1.91-.46,2.88-.66a29.8,29.8,0,0,1,15.28.85,20.17,20.17,0,0,1,9.64,7.65,23.26,23.26,0,0,1,3.71,10.68,41.62,41.62,0,0,0-7.31-7.34,18.25,18.25,0,0,0-8.16-3.42c-5.66-.79-11.75,1-17.76,3.37a160.7,160.7,0,0,0-18,9.07C516.49,705.34,510.51,709,504,712.44Z" transform="translate(-47.04 -80.87)"/><path class="cls-5" d="M500.57,737c5.76,1.58,10.95,3.27,16.17,4.64s10.32,2.6,15.49,3.57S542.6,747,548,747.57s10.82,1,16.76,1.72a40.09,40.09,0,0,1-16.57,6.14,53.6,53.6,0,0,1-34.46-6.58A39.61,39.61,0,0,1,500.57,737Z" transform="translate(-47.04 -80.87)"/><path class="cls-5" d="M506.74,802.4a22.65,22.65,0,0,0-7.89.41,27.24,27.24,0,0,0-7.23,2.7,26.26,26.26,0,0,0-6,4.48,19.47,19.47,0,0,0-2.29,2.8,15.24,15.24,0,0,0-1.53,3.08c-3.27,8.81,7,15.6,15.44,20.3A72.61,72.61,0,0,0,526,844.43a53.78,53.78,0,0,0,7.3-.09,36.93,36.93,0,0,0,7-1.29,26.91,26.91,0,0,0,6.26-2.6,24.74,24.74,0,0,0,2.73-1.86,6.93,6.93,0,0,0,1.06-.9,6.11,6.11,0,0,0,.78-.93,5.32,5.32,0,0,0,.91-1.84,3.13,3.13,0,0,0,0-1.52,5.45,5.45,0,0,0-.94-1.76,12.41,12.41,0,0,0-2-2,24.82,24.82,0,0,0-2.74-1.9c-1.07-.63-2.15-1.25-3.25-1.82a69.33,69.33,0,0,0-6.8-3.08A67.85,67.85,0,0,0,521.75,819c-.67-.11-1.06-.16-1.73-.22l-1.89-.14c-1.27-.09-2.56-.14-3.85-.18-2.58-.09-5.16-.09-7.68,0a39.15,39.15,0,0,0-7.15.93,7.84,7.84,0,0,0-2.31.93c-.21.13-.07.07-.11-.1s0-.17,0-.15-.05,0,0,0a.28.28,0,0,1,0,.13v.07l.06.11.1.23c.05.2.14.21.19.35a3.62,3.62,0,0,0,.79.76,12.79,12.79,0,0,0,2.87,1.44,46.3,46.3,0,0,0,7.34,1.89l4,.79c1.28.27,2.57.53,3.87.75,2.59.45,5.2.76,7.83,1s5.29.42,8,.46,5.34,0,8-.07c-2.61.67-5.26,1.16-7.94,1.58s-5.38.65-8.1.81-5.46.14-8.19,0c-1.37,0-2.74-.15-4.1-.26l-4-.26a50.22,50.22,0,0,1-8.4-1.22,17.8,17.8,0,0,1-4.47-1.75,9.62,9.62,0,0,1-2.28-1.79,8.16,8.16,0,0,1-1-1.28l-.37-.65L491,823l-.16-.4a6.77,6.77,0,0,1-.47-1.79,6.18,6.18,0,0,1,.08-2.13,6.89,6.89,0,0,1,2-3.43,13.47,13.47,0,0,1,4.78-2.71,42.28,42.28,0,0,1,8.65-1.84c2.81-.33,5.59-.51,8.37-.6,1.39,0,2.77,0,4.17,0l2.12.06c.68,0,1.62.09,2.27.16A71.39,71.39,0,0,1,539.51,814a67.76,67.76,0,0,1,7.92,3.34c1.28.63,2.55,1.31,3.8,2a33.44,33.44,0,0,1,3.91,2.59,21.26,21.26,0,0,1,3.7,3.61,15.11,15.11,0,0,1,2.75,5.31,13.09,13.09,0,0,1,.09,6.43,15.21,15.21,0,0,1-2.51,5.37,17,17,0,0,1-1.82,2.13,16.15,16.15,0,0,1-2,1.7,35.28,35.28,0,0,1-3.92,2.63,36.2,36.2,0,0,1-8.56,3.47,50.19,50.19,0,0,1-17.6,1.31,64.83,64.83,0,0,1-8.5-1.33,69.23,69.23,0,0,1-8.2-2.33,75.76,75.76,0,0,1-15.3-7.24,59.67,59.67,0,0,1-6.93-5,44.46,44.46,0,0,1-6.18-6.1,19.26,19.26,0,0,1-4.18-8.46,15,15,0,0,1-.14-4.91,16.07,16.07,0,0,1,1.42-4.58,19.79,19.79,0,0,1,2.55-3.81,22.89,22.89,0,0,1,3.21-3,26.14,26.14,0,0,1,7.47-4.1,28.45,28.45,0,0,1,8.16-1.68A21.72,21.72,0,0,1,506.74,802.4Z" transform="translate(-47.04 -80.87)"/><path class="cls-5" d="M555.52,882.21c4.37,1.31,8.07,2.51,11.79,3.41s7.27,1.69,10.87,2.27,7.23,1,11,1.24,7.62.35,12,.38l-.51.61c0,.29.22.36.28.32a.31.31,0,0,0,.18-.19c0-.11-.1-.12-.16,0a.3.3,0,0,0,.05.37.5.5,0,0,1-.51-.29.68.68,0,0,1,.16-.81.93.93,0,0,1,1-.12,1.07,1.07,0,0,1,.64,1.1l0,.11-.49.49A25.18,25.18,0,0,1,590,897.4a32.26,32.26,0,0,1-13.52.33A31.81,31.81,0,0,1,564,892.55,23.14,23.14,0,0,1,555.52,882.21Z" transform="translate(-47.04 -80.87)"/></g><path class="cls-4" d="M1049.15,651.12" transform="translate(-47.04 -80.87)"/></svg>